<?xml version="1.0" encoding="utf-8" standalone="no"?>
<!DOCTYPE svg PUBLIC "-//W3C//DTD SVG 1.1//EN"
  "http://www.w3.org/Graphics/SVG/1.1/DTD/svg11.dtd">
<svg xmlns:xlink="http://www.w3.org/1999/xlink" width="252pt" height="252pt" viewBox="0 0 252 252" xmlns="http://www.w3.org/2000/svg" version="1.1">
 <metadata>
  <rdf:RDF xmlns:dc="http://purl.org/dc/elements/1.1/" xmlns:cc="http://creativecommons.org/ns#" xmlns:rdf="http://www.w3.org/1999/02/22-rdf-syntax-ns#">
   <cc:Work>
    <dc:type rdf:resource="http://purl.org/dc/dcmitype/StillImage"/>
    <dc:date>2023-03-16T16:36:03.996760</dc:date>
    <dc:format>image/svg+xml</dc:format>
    <dc:creator>
     <cc:Agent>
      <dc:title>Matplotlib v3.7.1, https://matplotlib.org/</dc:title>
     </cc:Agent>
    </dc:creator>
   </cc:Work>
  </rdf:RDF>
 </metadata>
 <defs>
  <style type="text/css">*{stroke-linejoin: round; stroke-linecap: butt}</style>
 </defs>
 <g id="figure_1">
  <g id="patch_1">
   <path d="M 0 252 
L 252 252 
L 252 0 
L 0 0 
z
" style="fill: #ffffff"/>
  </g>
  <g id="axes_1">
   <g id="patch_2">
    <path d="M 31.5 224.28 
L 226.8 224.28 
L 226.8 30.24 
L 31.5 30.24 
z
" style="fill: #ffffff"/>
   </g>
   <g id="PathCollection_1">
    <defs>
     <path id="mf939d6bc2c" d="M 0 3 
C 0.795609 3 1.55874 2.683901 2.12132 2.12132 
C 2.683901 1.55874 3 0.795609 3 0 
C 3 -0.795609 2.683901 -1.55874 2.12132 -2.12132 
C 1.55874 -2.683901 0.795609 -3 0 -3 
C -0.795609 -3 -1.55874 -2.683901 -2.12132 -2.12132 
C -2.683901 -1.55874 -3 -0.795609 -3 0 
C -3 0.795609 -2.683901 1.55874 -2.12132 2.12132 
C -1.55874 2.683901 -0.795609 3 0 3 
z
" style="stroke: #000000; stroke-opacity: 0.8"/>
    </defs>
    <g clip-path="url(#pc07811521f)">
     <use xlink:href="#mf939d6bc2c" x="190.601545" y="69.61748" style="fill-opacity: 0.8; stroke: #000000; stroke-opacity: 0.8"/>
     <use xlink:href="#mf939d6bc2c" x="107.586444" y="75.685114" style="fill-opacity: 0.8; stroke: #000000; stroke-opacity: 0.8"/>
     <use xlink:href="#mf939d6bc2c" x="120.942377" y="101.710145" style="fill-opacity: 0.8; stroke: #000000; stroke-opacity: 0.8"/>
     <use xlink:href="#mf939d6bc2c" x="110.177747" y="54.484948" style="fill-opacity: 0.8; stroke: #000000; stroke-opacity: 0.8"/>
     <use xlink:href="#mf939d6bc2c" x="163.815539" y="140.601484" style="fill-opacity: 0.8; stroke: #000000; stroke-opacity: 0.8"/>
     <use xlink:href="#mf939d6bc2c" x="67.548897" y="74.003722" style="fill-opacity: 0.8; stroke: #000000; stroke-opacity: 0.8"/>
     <use xlink:href="#mf939d6bc2c" x="40.377273" y="129.051048" style="fill-opacity: 0.8; stroke: #000000; stroke-opacity: 0.8"/>
     <use xlink:href="#mf939d6bc2c" x="42.909384" y="91.402478" style="fill-opacity: 0.8; stroke: #000000; stroke-opacity: 0.8"/>
     <use xlink:href="#mf939d6bc2c" x="53.815459" y="215.46" style="fill-opacity: 0.8; stroke: #000000; stroke-opacity: 0.8"/>
     <use xlink:href="#mf939d6bc2c" x="138.009048" y="191.043257" style="fill-opacity: 0.8; stroke: #000000; stroke-opacity: 0.8"/>
     <use xlink:href="#mf939d6bc2c" x="44.876222" y="95.276991" style="fill-opacity: 0.8; stroke: #000000; stroke-opacity: 0.8"/>
     <use xlink:href="#mf939d6bc2c" x="40.377273" y="134.680058" style="fill-opacity: 0.8; stroke: #000000; stroke-opacity: 0.8"/>
     <use xlink:href="#mf939d6bc2c" x="40.377273" y="161.289921" style="fill-opacity: 0.8; stroke: #000000; stroke-opacity: 0.8"/>
     <use xlink:href="#mf939d6bc2c" x="173.018186" y="61.649142" style="fill-opacity: 0.8; stroke: #000000; stroke-opacity: 0.8"/>
     <use xlink:href="#mf939d6bc2c" x="217.922727" y="72.760953" style="fill-opacity: 0.8; stroke: #000000; stroke-opacity: 0.8"/>
     <use xlink:href="#mf939d6bc2c" x="119.920577" y="43.446241" style="fill-opacity: 0.8; stroke: #000000; stroke-opacity: 0.8"/>
     <use xlink:href="#mf939d6bc2c" x="202.969138" y="39.06" style="fill-opacity: 0.8; stroke: #000000; stroke-opacity: 0.8"/>
     <use xlink:href="#mf939d6bc2c" x="96.11927" y="128.466216" style="fill-opacity: 0.8; stroke: #000000; stroke-opacity: 0.8"/>
     <use xlink:href="#mf939d6bc2c" x="124.517604" y="176.056933" style="fill-opacity: 0.8; stroke: #000000; stroke-opacity: 0.8"/>
     <use xlink:href="#mf939d6bc2c" x="109.99401" y="147.98499" style="fill-opacity: 0.8; stroke: #000000; stroke-opacity: 0.8"/>
     <use xlink:href="#mf939d6bc2c" x="73.215366" y="99.297712" style="fill-opacity: 0.8; stroke: #000000; stroke-opacity: 0.8"/>
     <use xlink:href="#mf939d6bc2c" x="153.465893" y="90.305918" style="fill-opacity: 0.8; stroke: #000000; stroke-opacity: 0.8"/>
     <use xlink:href="#mf939d6bc2c" x="156.341919" y="40.960705" style="fill-opacity: 0.8; stroke: #000000; stroke-opacity: 0.8"/>
     <use xlink:href="#mf939d6bc2c" x="114.034622" y="83.361036" style="fill-opacity: 0.8; stroke: #000000; stroke-opacity: 0.8"/>
     <use xlink:href="#mf939d6bc2c" x="152.031406" y="105.365346" style="fill-opacity: 0.8; stroke: #000000; stroke-opacity: 0.8"/>
     <use xlink:href="#mf939d6bc2c" x="117.315919" y="89.136254" style="fill-opacity: 0.8; stroke: #000000; stroke-opacity: 0.8"/>
     <use xlink:href="#mf939d6bc2c" x="127.648327" y="79.486523" style="fill-opacity: 0.8; stroke: #000000; stroke-opacity: 0.8"/>
     <use xlink:href="#mf939d6bc2c" x="50.763584" y="63.769159" style="fill-opacity: 0.8; stroke: #000000; stroke-opacity: 0.8"/>
     <use xlink:href="#mf939d6bc2c" x="102.586517" y="54.923572" style="fill-opacity: 0.8; stroke: #000000; stroke-opacity: 0.8"/>
     <use xlink:href="#mf939d6bc2c" x="40.377273" y="105.584658" style="fill-opacity: 0.8; stroke: #000000; stroke-opacity: 0.8"/>
     <use xlink:href="#mf939d6bc2c" x="205.490333" y="57.847733" style="fill-opacity: 0.8; stroke: #000000; stroke-opacity: 0.8"/>
     <use xlink:href="#mf939d6bc2c" x="40.377273" y="108.801235" style="fill-opacity: 0.8; stroke: #000000; stroke-opacity: 0.8"/>
     <use xlink:href="#mf939d6bc2c" x="40.377273" y="160.705089" style="fill-opacity: 0.8; stroke: #000000; stroke-opacity: 0.8"/>
    </g>
   </g>
   <g id="PolyCollection_1">
    <path d="M 40.377273 103.659067 
L 40.377273 144.318281 
L 42.170661 143.324231 
L 43.96405 142.451656 
L 45.757438 141.770877 
L 47.550826 140.990059 
L 49.344215 139.869435 
L 51.137603 139.117691 
L 52.930992 138.365947 
L 54.72438 137.599383 
L 56.517769 136.532915 
L 58.311157 135.735576 
L 60.104545 134.980931 
L 61.897934 134.021472 
L 63.691322 133.087513 
L 65.484711 132.424572 
L 67.278099 131.399857 
L 69.071488 130.766544 
L 70.864876 129.920466 
L 72.658264 129.192365 
L 74.451653 128.460296 
L 76.245041 127.728227 
L 78.03843 127.225471 
L 79.831818 126.713777 
L 81.625207 125.96785 
L 83.418595 125.215233 
L 85.211983 124.459758 
L 87.005372 123.75875 
L 88.79876 122.961396 
L 90.592149 122.207345 
L 92.385537 121.453294 
L 94.178926 120.659064 
L 95.972314 120.147186 
L 97.765702 119.356921 
L 99.559091 118.8102 
L 101.352479 117.996901 
L 103.145868 117.136381 
L 104.939256 116.49486 
L 106.732645 115.789538 
L 108.526033 115.38044 
L 110.319421 114.681914 
L 112.11281 114.021461 
L 113.906198 113.245391 
L 115.699587 112.85361 
L 117.492975 112.351183 
L 119.286364 111.766779 
L 121.079752 111.215437 
L 122.87314 110.37356 
L 124.666529 109.699457 
L 126.459917 109.416923 
L 128.253306 109.13414 
L 130.046694 108.574216 
L 131.840083 108.206704 
L 133.633471 107.886614 
L 135.42686 107.474845 
L 137.220248 107.086293 
L 139.013636 106.744321 
L 140.807025 106.119525 
L 142.600413 105.713875 
L 144.393802 105.266876 
L 146.18719 104.836103 
L 147.980579 104.565348 
L 149.773967 104.186865 
L 151.567355 103.858289 
L 153.360744 103.53241 
L 155.154132 103.206886 
L 156.947521 102.884347 
L 158.740909 102.558311 
L 160.534298 102.231694 
L 162.327686 102.00428 
L 164.121074 101.644623 
L 165.914463 101.277248 
L 167.707851 100.930501 
L 169.50124 100.614274 
L 171.294628 100.45084 
L 173.088017 100.294484 
L 174.881405 100.07527 
L 176.674793 99.689837 
L 178.468182 99.254392 
L 180.26157 98.995212 
L 182.054959 98.743981 
L 183.848347 98.624762 
L 185.641736 98.505543 
L 187.435124 98.349175 
L 189.228512 98.007289 
L 191.021901 97.665403 
L 192.815289 97.320576 
L 194.608678 97.0265 
L 196.402066 96.866608 
L 198.195455 96.726133 
L 199.988843 96.556351 
L 201.782231 96.404963 
L 203.57562 96.253575 
L 205.369008 96.102186 
L 207.162397 95.950798 
L 208.955785 95.814353 
L 210.749174 95.727373 
L 212.542562 95.635047 
L 214.33595 95.54272 
L 216.129339 95.450393 
L 217.922727 95.201603 
L 217.922727 39.543968 
L 217.922727 39.543968 
L 216.129339 40.494991 
L 214.33595 41.362325 
L 212.542562 42.287443 
L 210.749174 43.257179 
L 208.955785 44.030563 
L 207.162397 44.888159 
L 205.369008 45.677396 
L 203.57562 46.597487 
L 201.782231 47.369469 
L 199.988843 48.142846 
L 198.195455 49.025251 
L 196.402066 49.981171 
L 194.608678 50.674734 
L 192.815289 51.368297 
L 191.021901 52.126532 
L 189.228512 53.114359 
L 187.435124 54.05502 
L 185.641736 55.014958 
L 183.848347 55.809217 
L 182.054959 56.626283 
L 180.26157 57.644898 
L 178.468182 58.393677 
L 176.674793 59.411904 
L 174.881405 60.399945 
L 173.088017 61.271552 
L 171.294628 62.127217 
L 169.50124 63.020139 
L 167.707851 64.088995 
L 165.914463 65.268764 
L 164.121074 66.171195 
L 162.327686 66.967786 
L 160.534298 67.932888 
L 158.740909 68.919506 
L 156.947521 69.870883 
L 155.154132 70.73298 
L 153.360744 71.349037 
L 151.567355 72.222901 
L 149.773967 72.741905 
L 147.980579 73.249375 
L 146.18719 73.835833 
L 144.393802 74.515318 
L 142.600413 75.05526 
L 140.807025 75.868725 
L 139.013636 76.579901 
L 137.220248 77.385476 
L 135.42686 77.957284 
L 133.633471 78.579057 
L 131.840083 79.252718 
L 130.046694 79.933351 
L 128.253306 80.61476 
L 126.459917 81.281415 
L 124.666529 81.967427 
L 122.87314 82.54067 
L 121.079752 82.977929 
L 119.286364 83.450667 
L 117.492975 83.991639 
L 115.699587 84.713687 
L 113.906198 85.213369 
L 112.11281 85.802147 
L 110.319421 86.341729 
L 108.526033 86.885393 
L 106.732645 87.546928 
L 104.939256 88.063284 
L 103.145868 88.556703 
L 101.352479 89.211885 
L 99.559091 89.86728 
L 97.765702 90.483011 
L 95.972314 91.021643 
L 94.178926 91.776442 
L 92.385537 92.198228 
L 90.592149 92.597806 
L 88.79876 92.897897 
L 87.005372 93.392973 
L 85.211983 93.89332 
L 83.418595 94.301591 
L 81.625207 94.702561 
L 79.831818 95.12841 
L 78.03843 95.627723 
L 76.245041 96.315576 
L 74.451653 96.812421 
L 72.658264 97.29833 
L 70.864876 97.927927 
L 69.071488 98.308847 
L 67.278099 98.676684 
L 65.484711 98.987679 
L 63.691322 98.935904 
L 61.897934 99.261722 
L 60.104545 99.652217 
L 58.311157 100.090789 
L 56.517769 100.410622 
L 54.72438 100.866568 
L 52.930992 101.17987 
L 51.137603 101.58111 
L 49.344215 101.853483 
L 47.550826 102.212664 
L 45.757438 102.696337 
L 43.96405 102.986834 
L 42.170661 103.390243 
L 40.377273 103.659067 
z
" clip-path="url(#pc07811521f)" style="fill-opacity: 0.15"/>
   </g>
   <g id="matplotlib.axis_1">
    <g id="xtick_1">
     <g id="line2d_1">
      <defs>
       <path id="mb913a5c5ea" d="M 0 0 
L 0 3.5 
" style="stroke: #000000; stroke-width: 0.8"/>
      </defs>
      <g>
       <use xlink:href="#mb913a5c5ea" x="40.377273" y="224.28" style="stroke: #000000; stroke-width: 0.8"/>
      </g>
     </g>
     <g id="text_1">
      <!-- 0 -->
      <g transform="translate(37.196023 238.878438) scale(0.1 -0.1)">
       <defs>
        <path id="DejaVuSans-30" d="M 2034 4250 
Q 1547 4250 1301 3770 
Q 1056 3291 1056 2328 
Q 1056 1369 1301 889 
Q 1547 409 2034 409 
Q 2525 409 2770 889 
Q 3016 1369 3016 2328 
Q 3016 3291 2770 3770 
Q 2525 4250 2034 4250 
z
M 2034 4750 
Q 2819 4750 3233 4129 
Q 3647 3509 3647 2328 
Q 3647 1150 3233 529 
Q 2819 -91 2034 -91 
Q 1250 -91 836 529 
Q 422 1150 422 2328 
Q 422 3509 836 4129 
Q 1250 4750 2034 4750 
z
" transform="scale(0.015625)"/>
       </defs>
       <use xlink:href="#DejaVuSans-30"/>
      </g>
     </g>
    </g>
    <g id="xtick_2">
     <g id="line2d_2">
      <g>
       <use xlink:href="#mb913a5c5ea" x="93.30885" y="224.28" style="stroke: #000000; stroke-width: 0.8"/>
      </g>
     </g>
     <g id="text_2">
      <!-- 1 -->
      <g transform="translate(90.1276 238.878438) scale(0.1 -0.1)">
       <defs>
        <path id="DejaVuSans-31" d="M 794 531 
L 1825 531 
L 1825 4091 
L 703 3866 
L 703 4441 
L 1819 4666 
L 2450 4666 
L 2450 531 
L 3481 531 
L 3481 0 
L 794 0 
L 794 531 
z
" transform="scale(0.015625)"/>
       </defs>
       <use xlink:href="#DejaVuSans-31"/>
      </g>
     </g>
    </g>
    <g id="xtick_3">
     <g id="line2d_3">
      <g>
       <use xlink:href="#mb913a5c5ea" x="146.240426" y="224.28" style="stroke: #000000; stroke-width: 0.8"/>
      </g>
     </g>
     <g id="text_3">
      <!-- 2 -->
      <g transform="translate(143.059176 238.878438) scale(0.1 -0.1)">
       <defs>
        <path id="DejaVuSans-32" d="M 1228 531 
L 3431 531 
L 3431 0 
L 469 0 
L 469 531 
Q 828 903 1448 1529 
Q 2069 2156 2228 2338 
Q 2531 2678 2651 2914 
Q 2772 3150 2772 3378 
Q 2772 3750 2511 3984 
Q 2250 4219 1831 4219 
Q 1534 4219 1204 4116 
Q 875 4013 500 3803 
L 500 4441 
Q 881 4594 1212 4672 
Q 1544 4750 1819 4750 
Q 2544 4750 2975 4387 
Q 3406 4025 3406 3419 
Q 3406 3131 3298 2873 
Q 3191 2616 2906 2266 
Q 2828 2175 2409 1742 
Q 1991 1309 1228 531 
z
" transform="scale(0.015625)"/>
       </defs>
       <use xlink:href="#DejaVuSans-32"/>
      </g>
     </g>
    </g>
    <g id="xtick_4">
     <g id="line2d_4">
      <g>
       <use xlink:href="#mb913a5c5ea" x="199.172003" y="224.28" style="stroke: #000000; stroke-width: 0.8"/>
      </g>
     </g>
     <g id="text_4">
      <!-- 3 -->
      <g transform="translate(195.990753 238.878438) scale(0.1 -0.1)">
       <defs>
        <path id="DejaVuSans-33" d="M 2597 2516 
Q 3050 2419 3304 2112 
Q 3559 1806 3559 1356 
Q 3559 666 3084 287 
Q 2609 -91 1734 -91 
Q 1441 -91 1130 -33 
Q 819 25 488 141 
L 488 750 
Q 750 597 1062 519 
Q 1375 441 1716 441 
Q 2309 441 2620 675 
Q 2931 909 2931 1356 
Q 2931 1769 2642 2001 
Q 2353 2234 1838 2234 
L 1294 2234 
L 1294 2753 
L 1863 2753 
Q 2328 2753 2575 2939 
Q 2822 3125 2822 3475 
Q 2822 3834 2567 4026 
Q 2313 4219 1838 4219 
Q 1578 4219 1281 4162 
Q 984 4106 628 3988 
L 628 4550 
Q 988 4650 1302 4700 
Q 1616 4750 1894 4750 
Q 2613 4750 3031 4423 
Q 3450 4097 3450 3541 
Q 3450 3153 3228 2886 
Q 3006 2619 2597 2516 
z
" transform="scale(0.015625)"/>
       </defs>
       <use xlink:href="#DejaVuSans-33"/>
      </g>
     </g>
    </g>
    <g id="text_5">
     <!-- S -->
     <g transform="translate(125.975781 252.556563) scale(0.1 -0.1)">
      <defs>
       <path id="DejaVuSans-53" d="M 3425 4513 
L 3425 3897 
Q 3066 4069 2747 4153 
Q 2428 4238 2131 4238 
Q 1616 4238 1336 4038 
Q 1056 3838 1056 3469 
Q 1056 3159 1242 3001 
Q 1428 2844 1947 2747 
L 2328 2669 
Q 3034 2534 3370 2195 
Q 3706 1856 3706 1288 
Q 3706 609 3251 259 
Q 2797 -91 1919 -91 
Q 1588 -91 1214 -16 
Q 841 59 441 206 
L 441 856 
Q 825 641 1194 531 
Q 1563 422 1919 422 
Q 2459 422 2753 634 
Q 3047 847 3047 1241 
Q 3047 1584 2836 1778 
Q 2625 1972 2144 2069 
L 1759 2144 
Q 1053 2284 737 2584 
Q 422 2884 422 3419 
Q 422 4038 858 4394 
Q 1294 4750 2059 4750 
Q 2388 4750 2728 4690 
Q 3069 4631 3425 4513 
z
" transform="scale(0.015625)"/>
      </defs>
      <use xlink:href="#DejaVuSans-53"/>
     </g>
    </g>
   </g>
   <g id="matplotlib.axis_2">
    <g id="ytick_1">
     <g id="line2d_5">
      <defs>
       <path id="m4945db27cb" d="M 0 0 
L -3.5 0 
" style="stroke: #000000; stroke-width: 0.8"/>
      </defs>
      <g>
       <use xlink:href="#m4945db27cb" x="31.5" y="211.073759" style="stroke: #000000; stroke-width: 0.8"/>
      </g>
     </g>
     <g id="text_6">
      <!-- −2.5 -->
      <g transform="translate(0.217187 214.872978) scale(0.1 -0.1)">
       <defs>
        <path id="DejaVuSans-2212" d="M 678 2272 
L 4684 2272 
L 4684 1741 
L 678 1741 
L 678 2272 
z
" transform="scale(0.015625)"/>
        <path id="DejaVuSans-2e" d="M 684 794 
L 1344 794 
L 1344 0 
L 684 0 
L 684 794 
z
" transform="scale(0.015625)"/>
        <path id="DejaVuSans-35" d="M 691 4666 
L 3169 4666 
L 3169 4134 
L 1269 4134 
L 1269 2991 
Q 1406 3038 1543 3061 
Q 1681 3084 1819 3084 
Q 2600 3084 3056 2656 
Q 3513 2228 3513 1497 
Q 3513 744 3044 326 
Q 2575 -91 1722 -91 
Q 1428 -91 1123 -41 
Q 819 9 494 109 
L 494 744 
Q 775 591 1075 516 
Q 1375 441 1709 441 
Q 2250 441 2565 725 
Q 2881 1009 2881 1497 
Q 2881 1984 2565 2268 
Q 2250 2553 1709 2553 
Q 1456 2553 1204 2497 
Q 953 2441 691 2322 
L 691 4666 
z
" transform="scale(0.015625)"/>
       </defs>
       <use xlink:href="#DejaVuSans-2212"/>
       <use xlink:href="#DejaVuSans-32" x="83.789062"/>
       <use xlink:href="#DejaVuSans-2e" x="147.412109"/>
       <use xlink:href="#DejaVuSans-35" x="179.199219"/>
      </g>
     </g>
    </g>
    <g id="ytick_2">
     <g id="line2d_6">
      <g>
       <use xlink:href="#m4945db27cb" x="31.5" y="174.521749" style="stroke: #000000; stroke-width: 0.8"/>
      </g>
     </g>
     <g id="text_7">
      <!-- −2.0 -->
      <g transform="translate(0.217187 178.320968) scale(0.1 -0.1)">
       <use xlink:href="#DejaVuSans-2212"/>
       <use xlink:href="#DejaVuSans-32" x="83.789062"/>
       <use xlink:href="#DejaVuSans-2e" x="147.412109"/>
       <use xlink:href="#DejaVuSans-30" x="179.199219"/>
      </g>
     </g>
    </g>
    <g id="ytick_3">
     <g id="line2d_7">
      <g>
       <use xlink:href="#m4945db27cb" x="31.5" y="137.969739" style="stroke: #000000; stroke-width: 0.8"/>
      </g>
     </g>
     <g id="text_8">
      <!-- −1.5 -->
      <g transform="translate(0.217187 141.768958) scale(0.1 -0.1)">
       <use xlink:href="#DejaVuSans-2212"/>
       <use xlink:href="#DejaVuSans-31" x="83.789062"/>
       <use xlink:href="#DejaVuSans-2e" x="147.412109"/>
       <use xlink:href="#DejaVuSans-35" x="179.199219"/>
      </g>
     </g>
    </g>
    <g id="ytick_4">
     <g id="line2d_8">
      <g>
       <use xlink:href="#m4945db27cb" x="31.5" y="101.417729" style="stroke: #000000; stroke-width: 0.8"/>
      </g>
     </g>
     <g id="text_9">
      <!-- −1.0 -->
      <g transform="translate(0.217187 105.216948) scale(0.1 -0.1)">
       <use xlink:href="#DejaVuSans-2212"/>
       <use xlink:href="#DejaVuSans-31" x="83.789062"/>
       <use xlink:href="#DejaVuSans-2e" x="147.412109"/>
       <use xlink:href="#DejaVuSans-30" x="179.199219"/>
      </g>
     </g>
    </g>
    <g id="ytick_5">
     <g id="line2d_9">
      <g>
       <use xlink:href="#m4945db27cb" x="31.5" y="64.865719" style="stroke: #000000; stroke-width: 0.8"/>
      </g>
     </g>
     <g id="text_10">
      <!-- −0.5 -->
      <g transform="translate(0.217187 68.664938) scale(0.1 -0.1)">
       <use xlink:href="#DejaVuSans-2212"/>
       <use xlink:href="#DejaVuSans-30" x="83.789062"/>
       <use xlink:href="#DejaVuSans-2e" x="147.412109"/>
       <use xlink:href="#DejaVuSans-35" x="179.199219"/>
      </g>
     </g>
    </g>
    <g id="text_11">
     <!-- $\Delta \Delta G_{X\rightarrow ALA}$ (kcal/mol) -->
     <g transform="translate(-5.8625 178.16) rotate(-90) scale(0.1 -0.1)">
      <defs>
       <path id="DejaVuSans-394" d="M 2188 4044 
L 906 525 
L 3472 525 
L 2188 4044 
z
M 50 0 
L 1831 4666 
L 2547 4666 
L 4325 0 
L 50 0 
z
" transform="scale(0.015625)"/>
       <path id="DejaVuSans-Oblique-47" d="M 3494 697 
L 3738 1919 
L 2700 1919 
L 2797 2438 
L 4453 2438 
L 4050 384 
Q 3634 156 3143 32 
Q 2653 -91 2156 -91 
Q 1278 -91 783 396 
Q 288 884 288 1753 
Q 288 2475 589 3126 
Q 891 3778 1422 4213 
Q 1756 4484 2153 4617 
Q 2550 4750 3034 4750 
Q 3472 4750 3873 4639 
Q 4275 4528 4641 4306 
L 4513 3634 
Q 4231 3928 3853 4083 
Q 3475 4238 3047 4238 
Q 2550 4238 2172 4048 
Q 1794 3859 1497 3463 
Q 1244 3125 1098 2667 
Q 953 2209 953 1734 
Q 953 1081 1287 751 
Q 1622 422 2284 422 
Q 2616 422 2925 492 
Q 3234 563 3494 697 
z
" transform="scale(0.015625)"/>
       <path id="DejaVuSans-Oblique-58" d="M 878 4666 
L 1516 4666 
L 2316 2981 
L 3763 4666 
L 4500 4666 
L 2578 2438 
L 3738 0 
L 3103 0 
L 2163 1966 
L 459 0 
L -275 0 
L 1906 2509 
L 878 4666 
z
" transform="scale(0.015625)"/>
       <path id="DejaVuSans-2192" d="M 5050 2147 
L 5050 1866 
L 3822 638 
L 3447 1013 
L 4175 1741 
L 366 1741 
L 366 2272 
L 4175 2272 
L 3447 3000 
L 3822 3375 
L 5050 2147 
z
" transform="scale(0.015625)"/>
       <path id="DejaVuSans-Oblique-41" d="M 2356 4666 
L 3072 4666 
L 3938 0 
L 3278 0 
L 3084 1197 
L 984 1197 
L 325 0 
L -341 0 
L 2356 4666 
z
M 2584 4044 
L 1275 1722 
L 2988 1722 
L 2584 4044 
z
" transform="scale(0.015625)"/>
       <path id="DejaVuSans-Oblique-4c" d="M 1075 4666 
L 1709 4666 
L 909 525 
L 3181 525 
L 3078 0 
L 172 0 
L 1075 4666 
z
" transform="scale(0.015625)"/>
       <path id="DejaVuSans-20" transform="scale(0.015625)"/>
       <path id="DejaVuSans-28" d="M 1984 4856 
Q 1566 4138 1362 3434 
Q 1159 2731 1159 2009 
Q 1159 1288 1364 580 
Q 1569 -128 1984 -844 
L 1484 -844 
Q 1016 -109 783 600 
Q 550 1309 550 2009 
Q 550 2706 781 3412 
Q 1013 4119 1484 4856 
L 1984 4856 
z
" transform="scale(0.015625)"/>
       <path id="DejaVuSans-6b" d="M 581 4863 
L 1159 4863 
L 1159 1991 
L 2875 3500 
L 3609 3500 
L 1753 1863 
L 3688 0 
L 2938 0 
L 1159 1709 
L 1159 0 
L 581 0 
L 581 4863 
z
" transform="scale(0.015625)"/>
       <path id="DejaVuSans-63" d="M 3122 3366 
L 3122 2828 
Q 2878 2963 2633 3030 
Q 2388 3097 2138 3097 
Q 1578 3097 1268 2742 
Q 959 2388 959 1747 
Q 959 1106 1268 751 
Q 1578 397 2138 397 
Q 2388 397 2633 464 
Q 2878 531 3122 666 
L 3122 134 
Q 2881 22 2623 -34 
Q 2366 -91 2075 -91 
Q 1284 -91 818 406 
Q 353 903 353 1747 
Q 353 2603 823 3093 
Q 1294 3584 2113 3584 
Q 2378 3584 2631 3529 
Q 2884 3475 3122 3366 
z
" transform="scale(0.015625)"/>
       <path id="DejaVuSans-61" d="M 2194 1759 
Q 1497 1759 1228 1600 
Q 959 1441 959 1056 
Q 959 750 1161 570 
Q 1363 391 1709 391 
Q 2188 391 2477 730 
Q 2766 1069 2766 1631 
L 2766 1759 
L 2194 1759 
z
M 3341 1997 
L 3341 0 
L 2766 0 
L 2766 531 
Q 2569 213 2275 61 
Q 1981 -91 1556 -91 
Q 1019 -91 701 211 
Q 384 513 384 1019 
Q 384 1609 779 1909 
Q 1175 2209 1959 2209 
L 2766 2209 
L 2766 2266 
Q 2766 2663 2505 2880 
Q 2244 3097 1772 3097 
Q 1472 3097 1187 3025 
Q 903 2953 641 2809 
L 641 3341 
Q 956 3463 1253 3523 
Q 1550 3584 1831 3584 
Q 2591 3584 2966 3190 
Q 3341 2797 3341 1997 
z
" transform="scale(0.015625)"/>
       <path id="DejaVuSans-6c" d="M 603 4863 
L 1178 4863 
L 1178 0 
L 603 0 
L 603 4863 
z
" transform="scale(0.015625)"/>
       <path id="DejaVuSans-2f" d="M 1625 4666 
L 2156 4666 
L 531 -594 
L 0 -594 
L 1625 4666 
z
" transform="scale(0.015625)"/>
       <path id="DejaVuSans-6d" d="M 3328 2828 
Q 3544 3216 3844 3400 
Q 4144 3584 4550 3584 
Q 5097 3584 5394 3201 
Q 5691 2819 5691 2113 
L 5691 0 
L 5113 0 
L 5113 2094 
Q 5113 2597 4934 2840 
Q 4756 3084 4391 3084 
Q 3944 3084 3684 2787 
Q 3425 2491 3425 1978 
L 3425 0 
L 2847 0 
L 2847 2094 
Q 2847 2600 2669 2842 
Q 2491 3084 2119 3084 
Q 1678 3084 1418 2786 
Q 1159 2488 1159 1978 
L 1159 0 
L 581 0 
L 581 3500 
L 1159 3500 
L 1159 2956 
Q 1356 3278 1631 3431 
Q 1906 3584 2284 3584 
Q 2666 3584 2933 3390 
Q 3200 3197 3328 2828 
z
" transform="scale(0.015625)"/>
       <path id="DejaVuSans-6f" d="M 1959 3097 
Q 1497 3097 1228 2736 
Q 959 2375 959 1747 
Q 959 1119 1226 758 
Q 1494 397 1959 397 
Q 2419 397 2687 759 
Q 2956 1122 2956 1747 
Q 2956 2369 2687 2733 
Q 2419 3097 1959 3097 
z
M 1959 3584 
Q 2709 3584 3137 3096 
Q 3566 2609 3566 1747 
Q 3566 888 3137 398 
Q 2709 -91 1959 -91 
Q 1206 -91 779 398 
Q 353 888 353 1747 
Q 353 2609 779 3096 
Q 1206 3584 1959 3584 
z
" transform="scale(0.015625)"/>
       <path id="DejaVuSans-29" d="M 513 4856 
L 1013 4856 
Q 1481 4119 1714 3412 
Q 1947 2706 1947 2009 
Q 1947 1309 1714 600 
Q 1481 -109 1013 -844 
L 513 -844 
Q 928 -128 1133 580 
Q 1338 1288 1338 2009 
Q 1338 2731 1133 3434 
Q 928 4138 513 4856 
z
" transform="scale(0.015625)"/>
      </defs>
      <use xlink:href="#DejaVuSans-394" transform="translate(0 0.015625)"/>
      <use xlink:href="#DejaVuSans-394" transform="translate(68.408203 0.015625)"/>
      <use xlink:href="#DejaVuSans-Oblique-47" transform="translate(136.816406 0.015625)"/>
      <use xlink:href="#DejaVuSans-Oblique-58" transform="translate(214.306641 -16.390625) scale(0.7)"/>
      <use xlink:href="#DejaVuSans-2192" transform="translate(275.898438 -16.390625) scale(0.7)"/>
      <use xlink:href="#DejaVuSans-Oblique-41" transform="translate(348.188477 -16.390625) scale(0.7)"/>
      <use xlink:href="#DejaVuSans-Oblique-4c" transform="translate(396.074219 -16.390625) scale(0.7)"/>
      <use xlink:href="#DejaVuSans-Oblique-41" transform="translate(435.073242 -16.390625) scale(0.7)"/>
      <use xlink:href="#DejaVuSans-20" transform="translate(485.693359 0.015625)"/>
      <use xlink:href="#DejaVuSans-28" transform="translate(517.480469 0.015625)"/>
      <use xlink:href="#DejaVuSans-6b" transform="translate(556.494141 0.015625)"/>
      <use xlink:href="#DejaVuSans-63" transform="translate(614.404297 0.015625)"/>
      <use xlink:href="#DejaVuSans-61" transform="translate(669.384766 0.015625)"/>
      <use xlink:href="#DejaVuSans-6c" transform="translate(730.664062 0.015625)"/>
      <use xlink:href="#DejaVuSans-2f" transform="translate(758.447266 0.015625)"/>
      <use xlink:href="#DejaVuSans-6d" transform="translate(792.138672 0.015625)"/>
      <use xlink:href="#DejaVuSans-6f" transform="translate(889.550781 0.015625)"/>
      <use xlink:href="#DejaVuSans-6c" transform="translate(950.732422 0.015625)"/>
      <use xlink:href="#DejaVuSans-29" transform="translate(978.515625 0.015625)"/>
     </g>
    </g>
   </g>
   <g id="line2d_10">
    <path d="M 40.377273 123.442246 
L 42.170661 122.859478 
L 43.96405 122.276709 
L 45.757438 121.693941 
L 47.550826 121.111172 
L 49.344215 120.528404 
L 51.137603 119.945635 
L 52.930992 119.362867 
L 54.72438 118.780098 
L 56.517769 118.19733 
L 58.311157 117.614562 
L 60.104545 117.031793 
L 61.897934 116.449025 
L 63.691322 115.866256 
L 65.484711 115.283488 
L 67.278099 114.700719 
L 69.071488 114.117951 
L 70.864876 113.535182 
L 72.658264 112.952414 
L 74.451653 112.369645 
L 76.245041 111.786877 
L 78.03843 111.204109 
L 79.831818 110.62134 
L 81.625207 110.038572 
L 83.418595 109.455803 
L 85.211983 108.873035 
L 87.005372 108.290266 
L 88.79876 107.707498 
L 90.592149 107.124729 
L 92.385537 106.541961 
L 94.178926 105.959192 
L 95.972314 105.376424 
L 97.765702 104.793655 
L 99.559091 104.210887 
L 101.352479 103.628119 
L 103.145868 103.04535 
L 104.939256 102.462582 
L 106.732645 101.879813 
L 108.526033 101.297045 
L 110.319421 100.714276 
L 112.11281 100.131508 
L 113.906198 99.548739 
L 115.699587 98.965971 
L 117.492975 98.383202 
L 119.286364 97.800434 
L 121.079752 97.217666 
L 122.87314 96.634897 
L 124.666529 96.052129 
L 126.459917 95.46936 
L 128.253306 94.886592 
L 130.046694 94.303823 
L 131.840083 93.721055 
L 133.633471 93.138286 
L 135.42686 92.555518 
L 137.220248 91.972749 
L 139.013636 91.389981 
L 140.807025 90.807212 
L 142.600413 90.224444 
L 144.393802 89.641676 
L 146.18719 89.058907 
L 147.980579 88.476139 
L 149.773967 87.89337 
L 151.567355 87.310602 
L 153.360744 86.727833 
L 155.154132 86.145065 
L 156.947521 85.562296 
L 158.740909 84.979528 
L 160.534298 84.396759 
L 162.327686 83.813991 
L 164.121074 83.231223 
L 165.914463 82.648454 
L 167.707851 82.065686 
L 169.50124 81.482917 
L 171.294628 80.900149 
L 173.088017 80.31738 
L 174.881405 79.734612 
L 176.674793 79.151843 
L 178.468182 78.569075 
L 180.26157 77.986306 
L 182.054959 77.403538 
L 183.848347 76.82077 
L 185.641736 76.238001 
L 187.435124 75.655233 
L 189.228512 75.072464 
L 191.021901 74.489696 
L 192.815289 73.906927 
L 194.608678 73.324159 
L 196.402066 72.74139 
L 198.195455 72.158622 
L 199.988843 71.575853 
L 201.782231 70.993085 
L 203.57562 70.410316 
L 205.369008 69.827548 
L 207.162397 69.24478 
L 208.955785 68.662011 
L 210.749174 68.079243 
L 212.542562 67.496474 
L 214.33595 66.913706 
L 216.129339 66.330937 
L 217.922727 65.748169 
" clip-path="url(#pc07811521f)" style="fill: none; stroke: #000000; stroke-width: 2.25; stroke-linecap: square"/>
   </g>
   <g id="patch_3">
    <path d="M 31.5 224.28 
L 31.5 30.24 
" style="fill: none; stroke: #000000; stroke-width: 0.8; stroke-linejoin: miter; stroke-linecap: square"/>
   </g>
   <g id="patch_4">
    <path d="M 226.8 224.28 
L 226.8 30.24 
" style="fill: none; stroke: #000000; stroke-width: 0.8; stroke-linejoin: miter; stroke-linecap: square"/>
   </g>
   <g id="patch_5">
    <path d="M 31.5 224.28 
L 226.8 224.28 
" style="fill: none; stroke: #000000; stroke-width: 0.8; stroke-linejoin: miter; stroke-linecap: square"/>
   </g>
   <g id="patch_6">
    <path d="M 31.5 30.24 
L 226.8 30.24 
" style="fill: none; stroke: #000000; stroke-width: 0.8; stroke-linejoin: miter; stroke-linecap: square"/>
   </g>
  </g>
 </g>
 <defs>
  <clipPath id="pc07811521f">
   <rect x="31.5" y="30.24" width="195.3" height="194.04"/>
  </clipPath>
 </defs>
</svg>
