<?xml version="1.0" encoding="utf-8" standalone="no"?>
<!DOCTYPE svg PUBLIC "-//W3C//DTD SVG 1.1//EN"
  "http://www.w3.org/Graphics/SVG/1.1/DTD/svg11.dtd">
<svg xmlns:xlink="http://www.w3.org/1999/xlink" width="180pt" height="288pt" viewBox="0 0 180 288" xmlns="http://www.w3.org/2000/svg" version="1.1">
 <metadata>
  <rdf:RDF xmlns:dc="http://purl.org/dc/elements/1.1/" xmlns:cc="http://creativecommons.org/ns#" xmlns:rdf="http://www.w3.org/1999/02/22-rdf-syntax-ns#">
   <cc:Work>
    <dc:type rdf:resource="http://purl.org/dc/dcmitype/StillImage"/>
    <dc:date>2023-03-16T15:25:28.535563</dc:date>
    <dc:format>image/svg+xml</dc:format>
    <dc:creator>
     <cc:Agent>
      <dc:title>Matplotlib v3.7.1, https://matplotlib.org/</dc:title>
     </cc:Agent>
    </dc:creator>
   </cc:Work>
  </rdf:RDF>
 </metadata>
 <defs>
  <style type="text/css">*{stroke-linejoin: round; stroke-linecap: butt}</style>
 </defs>
 <g id="figure_1">
  <g id="patch_1">
   <path d="M 0 288 
L 180 288 
L 180 0 
L 0 0 
z
" style="fill: #ffffff"/>
  </g>
  <g id="axes_1">
   <g id="patch_2">
    <path d="M 44.31125 246.04 
L 164.380909 246.04 
L 164.380909 10.8 
L 44.31125 10.8 
z
" style="fill: #ffffff"/>
   </g>
   <g id="patch_3">
    <path d="M 101.044129 14.720667 
L 101.044129 46.086 
L 117.50756 46.086 
L 117.50756 14.720667 
L 101.044129 14.720667 
z
" clip-path="url(#pc4c507b994)" style="fill: #0e455b; stroke: #1f1f1f; stroke-width: 1.5; stroke-linejoin: miter"/>
   </g>
   <g id="patch_4">
    <path d="M 52.95537 53.927333 
L 52.95537 85.292667 
L 66.132035 85.292667 
L 66.132035 53.927333 
L 52.95537 53.927333 
z
" clip-path="url(#pc4c507b994)" style="fill: #dfc587; stroke: #1f1f1f; stroke-width: 1.5; stroke-linejoin: miter"/>
   </g>
   <g id="patch_5">
    <path d="M 52.800549 93.134 
L 52.800549 124.499333 
L 55.184974 124.499333 
L 55.184974 93.134 
L 52.800549 93.134 
z
" clip-path="url(#pc4c507b994)" style="fill: #cd964a; stroke: #1f1f1f; stroke-width: 1.5; stroke-linejoin: miter"/>
   </g>
   <g id="patch_6">
    <path d="M 53.131215 132.340667 
L 53.131215 163.706 
L 56.32694 163.706 
L 56.32694 132.340667 
L 53.131215 132.340667 
z
" clip-path="url(#pc4c507b994)" style="fill: #cd964a; stroke: #1f1f1f; stroke-width: 1.5; stroke-linejoin: miter"/>
   </g>
   <g id="patch_7">
    <path d="M 53.212272 171.547333 
L 53.212272 202.912667 
L 64.540109 202.912667 
L 64.540109 171.547333 
L 53.212272 171.547333 
z
" clip-path="url(#pc4c507b994)" style="fill: #dfc587; stroke: #1f1f1f; stroke-width: 1.5; stroke-linejoin: miter"/>
   </g>
   <g id="patch_8">
    <path d="M 74.536759 210.754 
L 74.536759 242.119333 
L 95.485058 242.119333 
L 95.485058 210.754 
L 74.536759 210.754 
z
" clip-path="url(#pc4c507b994)" style="fill: #0e455b; stroke: #1f1f1f; stroke-width: 1.5; stroke-linejoin: miter"/>
   </g>
   <g id="matplotlib.axis_1">
    <g id="xtick_1">
     <g id="line2d_1">
      <defs>
       <path id="m926c55fe6c" d="M 0 0 
L 0 3.5 
" style="stroke: #000000; stroke-width: 0.8"/>
      </defs>
      <g>
       <use xlink:href="#m926c55fe6c" x="49.440785" y="246.04" style="stroke: #000000; stroke-width: 0.8"/>
      </g>
     </g>
     <g id="text_1">
      <!-- 0.00 -->
      <g transform="translate(38.307972 260.638438) scale(0.1 -0.1)">
       <defs>
        <path id="DejaVuSans-30" d="M 2034 4250 
Q 1547 4250 1301 3770 
Q 1056 3291 1056 2328 
Q 1056 1369 1301 889 
Q 1547 409 2034 409 
Q 2525 409 2770 889 
Q 3016 1369 3016 2328 
Q 3016 3291 2770 3770 
Q 2525 4250 2034 4250 
z
M 2034 4750 
Q 2819 4750 3233 4129 
Q 3647 3509 3647 2328 
Q 3647 1150 3233 529 
Q 2819 -91 2034 -91 
Q 1250 -91 836 529 
Q 422 1150 422 2328 
Q 422 3509 836 4129 
Q 1250 4750 2034 4750 
z
" transform="scale(0.015625)"/>
        <path id="DejaVuSans-2e" d="M 684 794 
L 1344 794 
L 1344 0 
L 684 0 
L 684 794 
z
" transform="scale(0.015625)"/>
       </defs>
       <use xlink:href="#DejaVuSans-30"/>
       <use xlink:href="#DejaVuSans-2e" x="63.623047"/>
       <use xlink:href="#DejaVuSans-30" x="95.410156"/>
       <use xlink:href="#DejaVuSans-30" x="159.033203"/>
      </g>
     </g>
    </g>
    <g id="xtick_2">
     <g id="line2d_2">
      <g>
       <use xlink:href="#m926c55fe6c" x="85.934922" y="246.04" style="stroke: #000000; stroke-width: 0.8"/>
      </g>
     </g>
     <g id="text_2">
      <!-- 0.05 -->
      <g transform="translate(74.80211 260.638438) scale(0.1 -0.1)">
       <defs>
        <path id="DejaVuSans-35" d="M 691 4666 
L 3169 4666 
L 3169 4134 
L 1269 4134 
L 1269 2991 
Q 1406 3038 1543 3061 
Q 1681 3084 1819 3084 
Q 2600 3084 3056 2656 
Q 3513 2228 3513 1497 
Q 3513 744 3044 326 
Q 2575 -91 1722 -91 
Q 1428 -91 1123 -41 
Q 819 9 494 109 
L 494 744 
Q 775 591 1075 516 
Q 1375 441 1709 441 
Q 2250 441 2565 725 
Q 2881 1009 2881 1497 
Q 2881 1984 2565 2268 
Q 2250 2553 1709 2553 
Q 1456 2553 1204 2497 
Q 953 2441 691 2322 
L 691 4666 
z
" transform="scale(0.015625)"/>
       </defs>
       <use xlink:href="#DejaVuSans-30"/>
       <use xlink:href="#DejaVuSans-2e" x="63.623047"/>
       <use xlink:href="#DejaVuSans-30" x="95.410156"/>
       <use xlink:href="#DejaVuSans-35" x="159.033203"/>
      </g>
     </g>
    </g>
    <g id="xtick_3">
     <g id="line2d_3">
      <g>
       <use xlink:href="#m926c55fe6c" x="122.42906" y="246.04" style="stroke: #000000; stroke-width: 0.8"/>
      </g>
     </g>
     <g id="text_3">
      <!-- 0.10 -->
      <g transform="translate(111.296247 260.638438) scale(0.1 -0.1)">
       <defs>
        <path id="DejaVuSans-31" d="M 794 531 
L 1825 531 
L 1825 4091 
L 703 3866 
L 703 4441 
L 1819 4666 
L 2450 4666 
L 2450 531 
L 3481 531 
L 3481 0 
L 794 0 
L 794 531 
z
" transform="scale(0.015625)"/>
       </defs>
       <use xlink:href="#DejaVuSans-30"/>
       <use xlink:href="#DejaVuSans-2e" x="63.623047"/>
       <use xlink:href="#DejaVuSans-31" x="95.410156"/>
       <use xlink:href="#DejaVuSans-30" x="159.033203"/>
      </g>
     </g>
    </g>
    <g id="xtick_4">
     <g id="line2d_4">
      <g>
       <use xlink:href="#m926c55fe6c" x="158.923197" y="246.04" style="stroke: #000000; stroke-width: 0.8"/>
      </g>
     </g>
     <g id="text_4">
      <!-- 0.15 -->
      <g transform="translate(147.790385 260.638438) scale(0.1 -0.1)">
       <use xlink:href="#DejaVuSans-30"/>
       <use xlink:href="#DejaVuSans-2e" x="63.623047"/>
       <use xlink:href="#DejaVuSans-31" x="95.410156"/>
       <use xlink:href="#DejaVuSans-35" x="159.033203"/>
      </g>
     </g>
    </g>
    <g id="text_5">
     <!-- leu18 -->
     <g transform="translate(90.349205 274.316562) scale(0.1 -0.1)">
      <defs>
       <path id="DejaVuSans-6c" d="M 603 4863 
L 1178 4863 
L 1178 0 
L 603 0 
L 603 4863 
z
" transform="scale(0.015625)"/>
       <path id="DejaVuSans-65" d="M 3597 1894 
L 3597 1613 
L 953 1613 
Q 991 1019 1311 708 
Q 1631 397 2203 397 
Q 2534 397 2845 478 
Q 3156 559 3463 722 
L 3463 178 
Q 3153 47 2828 -22 
Q 2503 -91 2169 -91 
Q 1331 -91 842 396 
Q 353 884 353 1716 
Q 353 2575 817 3079 
Q 1281 3584 2069 3584 
Q 2775 3584 3186 3129 
Q 3597 2675 3597 1894 
z
M 3022 2063 
Q 3016 2534 2758 2815 
Q 2500 3097 2075 3097 
Q 1594 3097 1305 2825 
Q 1016 2553 972 2059 
L 3022 2063 
z
" transform="scale(0.015625)"/>
       <path id="DejaVuSans-75" d="M 544 1381 
L 544 3500 
L 1119 3500 
L 1119 1403 
Q 1119 906 1312 657 
Q 1506 409 1894 409 
Q 2359 409 2629 706 
Q 2900 1003 2900 1516 
L 2900 3500 
L 3475 3500 
L 3475 0 
L 2900 0 
L 2900 538 
Q 2691 219 2414 64 
Q 2138 -91 1772 -91 
Q 1169 -91 856 284 
Q 544 659 544 1381 
z
M 1991 3584 
L 1991 3584 
z
" transform="scale(0.015625)"/>
       <path id="DejaVuSans-38" d="M 2034 2216 
Q 1584 2216 1326 1975 
Q 1069 1734 1069 1313 
Q 1069 891 1326 650 
Q 1584 409 2034 409 
Q 2484 409 2743 651 
Q 3003 894 3003 1313 
Q 3003 1734 2745 1975 
Q 2488 2216 2034 2216 
z
M 1403 2484 
Q 997 2584 770 2862 
Q 544 3141 544 3541 
Q 544 4100 942 4425 
Q 1341 4750 2034 4750 
Q 2731 4750 3128 4425 
Q 3525 4100 3525 3541 
Q 3525 3141 3298 2862 
Q 3072 2584 2669 2484 
Q 3125 2378 3379 2068 
Q 3634 1759 3634 1313 
Q 3634 634 3220 271 
Q 2806 -91 2034 -91 
Q 1263 -91 848 271 
Q 434 634 434 1313 
Q 434 1759 690 2068 
Q 947 2378 1403 2484 
z
M 1172 3481 
Q 1172 3119 1398 2916 
Q 1625 2713 2034 2713 
Q 2441 2713 2670 2916 
Q 2900 3119 2900 3481 
Q 2900 3844 2670 4047 
Q 2441 4250 2034 4250 
Q 1625 4250 1398 4047 
Q 1172 3844 1172 3481 
z
" transform="scale(0.015625)"/>
      </defs>
      <use xlink:href="#DejaVuSans-6c"/>
      <use xlink:href="#DejaVuSans-65" x="27.783203"/>
      <use xlink:href="#DejaVuSans-75" x="89.306641"/>
      <use xlink:href="#DejaVuSans-31" x="152.685547"/>
      <use xlink:href="#DejaVuSans-38" x="216.308594"/>
     </g>
    </g>
   </g>
   <g id="matplotlib.axis_2">
    <g id="ytick_1">
     <g id="line2d_5">
      <defs>
       <path id="m17918c9605" d="M 0 0 
L -3.5 0 
" style="stroke: #000000; stroke-width: 0.8"/>
      </defs>
      <g>
       <use xlink:href="#m17918c9605" x="44.31125" y="30.403333" style="stroke: #000000; stroke-width: 0.8"/>
      </g>
     </g>
     <g id="text_6">
      <!-- x1 -->
      <g transform="translate(25.03 34.202552) scale(0.1 -0.1)">
       <defs>
        <path id="DejaVuSans-78" d="M 3513 3500 
L 2247 1797 
L 3578 0 
L 2900 0 
L 1881 1375 
L 863 0 
L 184 0 
L 1544 1831 
L 300 3500 
L 978 3500 
L 1906 2253 
L 2834 3500 
L 3513 3500 
z
" transform="scale(0.015625)"/>
       </defs>
       <use xlink:href="#DejaVuSans-78"/>
       <use xlink:href="#DejaVuSans-31" x="59.179688"/>
      </g>
     </g>
    </g>
    <g id="ytick_2">
     <g id="line2d_6">
      <g>
       <use xlink:href="#m17918c9605" x="44.31125" y="69.61" style="stroke: #000000; stroke-width: 0.8"/>
      </g>
     </g>
     <g id="text_7">
      <!-- x2 -->
      <g transform="translate(25.03 73.409219) scale(0.1 -0.1)">
       <defs>
        <path id="DejaVuSans-32" d="M 1228 531 
L 3431 531 
L 3431 0 
L 469 0 
L 469 531 
Q 828 903 1448 1529 
Q 2069 2156 2228 2338 
Q 2531 2678 2651 2914 
Q 2772 3150 2772 3378 
Q 2772 3750 2511 3984 
Q 2250 4219 1831 4219 
Q 1534 4219 1204 4116 
Q 875 4013 500 3803 
L 500 4441 
Q 881 4594 1212 4672 
Q 1544 4750 1819 4750 
Q 2544 4750 2975 4387 
Q 3406 4025 3406 3419 
Q 3406 3131 3298 2873 
Q 3191 2616 2906 2266 
Q 2828 2175 2409 1742 
Q 1991 1309 1228 531 
z
" transform="scale(0.015625)"/>
       </defs>
       <use xlink:href="#DejaVuSans-78"/>
       <use xlink:href="#DejaVuSans-32" x="59.179688"/>
      </g>
     </g>
    </g>
    <g id="ytick_3">
     <g id="line2d_7">
      <g>
       <use xlink:href="#m17918c9605" x="44.31125" y="108.816667" style="stroke: #000000; stroke-width: 0.8"/>
      </g>
     </g>
     <g id="text_8">
      <!-- x3 -->
      <g transform="translate(25.03 112.615885) scale(0.1 -0.1)">
       <defs>
        <path id="DejaVuSans-33" d="M 2597 2516 
Q 3050 2419 3304 2112 
Q 3559 1806 3559 1356 
Q 3559 666 3084 287 
Q 2609 -91 1734 -91 
Q 1441 -91 1130 -33 
Q 819 25 488 141 
L 488 750 
Q 750 597 1062 519 
Q 1375 441 1716 441 
Q 2309 441 2620 675 
Q 2931 909 2931 1356 
Q 2931 1769 2642 2001 
Q 2353 2234 1838 2234 
L 1294 2234 
L 1294 2753 
L 1863 2753 
Q 2328 2753 2575 2939 
Q 2822 3125 2822 3475 
Q 2822 3834 2567 4026 
Q 2313 4219 1838 4219 
Q 1578 4219 1281 4162 
Q 984 4106 628 3988 
L 628 4550 
Q 988 4650 1302 4700 
Q 1616 4750 1894 4750 
Q 2613 4750 3031 4423 
Q 3450 4097 3450 3541 
Q 3450 3153 3228 2886 
Q 3006 2619 2597 2516 
z
" transform="scale(0.015625)"/>
       </defs>
       <use xlink:href="#DejaVuSans-78"/>
       <use xlink:href="#DejaVuSans-33" x="59.179688"/>
      </g>
     </g>
    </g>
    <g id="ytick_4">
     <g id="line2d_8">
      <g>
       <use xlink:href="#m17918c9605" x="44.31125" y="148.023333" style="stroke: #000000; stroke-width: 0.8"/>
      </g>
     </g>
     <g id="text_9">
      <!-- x4 -->
      <g transform="translate(25.03 151.822552) scale(0.1 -0.1)">
       <defs>
        <path id="DejaVuSans-34" d="M 2419 4116 
L 825 1625 
L 2419 1625 
L 2419 4116 
z
M 2253 4666 
L 3047 4666 
L 3047 1625 
L 3713 1625 
L 3713 1100 
L 3047 1100 
L 3047 0 
L 2419 0 
L 2419 1100 
L 313 1100 
L 313 1709 
L 2253 4666 
z
" transform="scale(0.015625)"/>
       </defs>
       <use xlink:href="#DejaVuSans-78"/>
       <use xlink:href="#DejaVuSans-34" x="59.179688"/>
      </g>
     </g>
    </g>
    <g id="ytick_5">
     <g id="line2d_9">
      <g>
       <use xlink:href="#m17918c9605" x="44.31125" y="187.23" style="stroke: #000000; stroke-width: 0.8"/>
      </g>
     </g>
     <g id="text_10">
      <!-- x5 -->
      <g transform="translate(25.03 191.029219) scale(0.1 -0.1)">
       <use xlink:href="#DejaVuSans-78"/>
       <use xlink:href="#DejaVuSans-35" x="59.179688"/>
      </g>
     </g>
    </g>
    <g id="ytick_6">
     <g id="line2d_10">
      <g>
       <use xlink:href="#m17918c9605" x="44.31125" y="226.436667" style="stroke: #000000; stroke-width: 0.8"/>
      </g>
     </g>
     <g id="text_11">
      <!-- x6 -->
      <g transform="translate(25.03 230.235885) scale(0.1 -0.1)">
       <defs>
        <path id="DejaVuSans-36" d="M 2113 2584 
Q 1688 2584 1439 2293 
Q 1191 2003 1191 1497 
Q 1191 994 1439 701 
Q 1688 409 2113 409 
Q 2538 409 2786 701 
Q 3034 994 3034 1497 
Q 3034 2003 2786 2293 
Q 2538 2584 2113 2584 
z
M 3366 4563 
L 3366 3988 
Q 3128 4100 2886 4159 
Q 2644 4219 2406 4219 
Q 1781 4219 1451 3797 
Q 1122 3375 1075 2522 
Q 1259 2794 1537 2939 
Q 1816 3084 2150 3084 
Q 2853 3084 3261 2657 
Q 3669 2231 3669 1497 
Q 3669 778 3244 343 
Q 2819 -91 2113 -91 
Q 1303 -91 875 529 
Q 447 1150 447 2328 
Q 447 3434 972 4092 
Q 1497 4750 2381 4750 
Q 2619 4750 2861 4703 
Q 3103 4656 3366 4563 
z
" transform="scale(0.015625)"/>
       </defs>
       <use xlink:href="#DejaVuSans-78"/>
       <use xlink:href="#DejaVuSans-36" x="59.179688"/>
      </g>
     </g>
    </g>
    <g id="text_12">
     <!-- reordered_chain -->
     <g transform="translate(18.672187 168.95125) rotate(-90) scale(0.1 -0.1)">
      <defs>
       <path id="DejaVuSans-72" d="M 2631 2963 
Q 2534 3019 2420 3045 
Q 2306 3072 2169 3072 
Q 1681 3072 1420 2755 
Q 1159 2438 1159 1844 
L 1159 0 
L 581 0 
L 581 3500 
L 1159 3500 
L 1159 2956 
Q 1341 3275 1631 3429 
Q 1922 3584 2338 3584 
Q 2397 3584 2469 3576 
Q 2541 3569 2628 3553 
L 2631 2963 
z
" transform="scale(0.015625)"/>
       <path id="DejaVuSans-6f" d="M 1959 3097 
Q 1497 3097 1228 2736 
Q 959 2375 959 1747 
Q 959 1119 1226 758 
Q 1494 397 1959 397 
Q 2419 397 2687 759 
Q 2956 1122 2956 1747 
Q 2956 2369 2687 2733 
Q 2419 3097 1959 3097 
z
M 1959 3584 
Q 2709 3584 3137 3096 
Q 3566 2609 3566 1747 
Q 3566 888 3137 398 
Q 2709 -91 1959 -91 
Q 1206 -91 779 398 
Q 353 888 353 1747 
Q 353 2609 779 3096 
Q 1206 3584 1959 3584 
z
" transform="scale(0.015625)"/>
       <path id="DejaVuSans-64" d="M 2906 2969 
L 2906 4863 
L 3481 4863 
L 3481 0 
L 2906 0 
L 2906 525 
Q 2725 213 2448 61 
Q 2172 -91 1784 -91 
Q 1150 -91 751 415 
Q 353 922 353 1747 
Q 353 2572 751 3078 
Q 1150 3584 1784 3584 
Q 2172 3584 2448 3432 
Q 2725 3281 2906 2969 
z
M 947 1747 
Q 947 1113 1208 752 
Q 1469 391 1925 391 
Q 2381 391 2643 752 
Q 2906 1113 2906 1747 
Q 2906 2381 2643 2742 
Q 2381 3103 1925 3103 
Q 1469 3103 1208 2742 
Q 947 2381 947 1747 
z
" transform="scale(0.015625)"/>
       <path id="DejaVuSans-5f" d="M 3263 -1063 
L 3263 -1509 
L -63 -1509 
L -63 -1063 
L 3263 -1063 
z
" transform="scale(0.015625)"/>
       <path id="DejaVuSans-63" d="M 3122 3366 
L 3122 2828 
Q 2878 2963 2633 3030 
Q 2388 3097 2138 3097 
Q 1578 3097 1268 2742 
Q 959 2388 959 1747 
Q 959 1106 1268 751 
Q 1578 397 2138 397 
Q 2388 397 2633 464 
Q 2878 531 3122 666 
L 3122 134 
Q 2881 22 2623 -34 
Q 2366 -91 2075 -91 
Q 1284 -91 818 406 
Q 353 903 353 1747 
Q 353 2603 823 3093 
Q 1294 3584 2113 3584 
Q 2378 3584 2631 3529 
Q 2884 3475 3122 3366 
z
" transform="scale(0.015625)"/>
       <path id="DejaVuSans-68" d="M 3513 2113 
L 3513 0 
L 2938 0 
L 2938 2094 
Q 2938 2591 2744 2837 
Q 2550 3084 2163 3084 
Q 1697 3084 1428 2787 
Q 1159 2491 1159 1978 
L 1159 0 
L 581 0 
L 581 4863 
L 1159 4863 
L 1159 2956 
Q 1366 3272 1645 3428 
Q 1925 3584 2291 3584 
Q 2894 3584 3203 3211 
Q 3513 2838 3513 2113 
z
" transform="scale(0.015625)"/>
       <path id="DejaVuSans-61" d="M 2194 1759 
Q 1497 1759 1228 1600 
Q 959 1441 959 1056 
Q 959 750 1161 570 
Q 1363 391 1709 391 
Q 2188 391 2477 730 
Q 2766 1069 2766 1631 
L 2766 1759 
L 2194 1759 
z
M 3341 1997 
L 3341 0 
L 2766 0 
L 2766 531 
Q 2569 213 2275 61 
Q 1981 -91 1556 -91 
Q 1019 -91 701 211 
Q 384 513 384 1019 
Q 384 1609 779 1909 
Q 1175 2209 1959 2209 
L 2766 2209 
L 2766 2266 
Q 2766 2663 2505 2880 
Q 2244 3097 1772 3097 
Q 1472 3097 1187 3025 
Q 903 2953 641 2809 
L 641 3341 
Q 956 3463 1253 3523 
Q 1550 3584 1831 3584 
Q 2591 3584 2966 3190 
Q 3341 2797 3341 1997 
z
" transform="scale(0.015625)"/>
       <path id="DejaVuSans-69" d="M 603 3500 
L 1178 3500 
L 1178 0 
L 603 0 
L 603 3500 
z
M 603 4863 
L 1178 4863 
L 1178 4134 
L 603 4134 
L 603 4863 
z
" transform="scale(0.015625)"/>
       <path id="DejaVuSans-6e" d="M 3513 2113 
L 3513 0 
L 2938 0 
L 2938 2094 
Q 2938 2591 2744 2837 
Q 2550 3084 2163 3084 
Q 1697 3084 1428 2787 
Q 1159 2491 1159 1978 
L 1159 0 
L 581 0 
L 581 3500 
L 1159 3500 
L 1159 2956 
Q 1366 3272 1645 3428 
Q 1925 3584 2291 3584 
Q 2894 3584 3203 3211 
Q 3513 2838 3513 2113 
z
" transform="scale(0.015625)"/>
      </defs>
      <use xlink:href="#DejaVuSans-72"/>
      <use xlink:href="#DejaVuSans-65" x="38.863281"/>
      <use xlink:href="#DejaVuSans-6f" x="100.386719"/>
      <use xlink:href="#DejaVuSans-72" x="161.568359"/>
      <use xlink:href="#DejaVuSans-64" x="200.931641"/>
      <use xlink:href="#DejaVuSans-65" x="264.408203"/>
      <use xlink:href="#DejaVuSans-72" x="325.931641"/>
      <use xlink:href="#DejaVuSans-65" x="364.794922"/>
      <use xlink:href="#DejaVuSans-64" x="426.318359"/>
      <use xlink:href="#DejaVuSans-5f" x="489.794922"/>
      <use xlink:href="#DejaVuSans-63" x="539.794922"/>
      <use xlink:href="#DejaVuSans-68" x="594.775391"/>
      <use xlink:href="#DejaVuSans-61" x="658.154297"/>
      <use xlink:href="#DejaVuSans-69" x="719.433594"/>
      <use xlink:href="#DejaVuSans-6e" x="747.216797"/>
     </g>
    </g>
   </g>
   <g id="line2d_11">
    <path d="M 101.044129 30.403333 
L 77.907537 30.403333 
" clip-path="url(#pc4c507b994)" style="fill: none; stroke: #1f1f1f; stroke-width: 1.5; stroke-linecap: square"/>
   </g>
   <g id="line2d_12">
    <path d="M 117.50756 30.403333 
L 129.279393 30.403333 
" clip-path="url(#pc4c507b994)" style="fill: none; stroke: #1f1f1f; stroke-width: 1.5; stroke-linecap: square"/>
   </g>
   <g id="line2d_13">
    <path d="M 77.907537 22.562 
L 77.907537 38.244667 
" clip-path="url(#pc4c507b994)" style="fill: none; stroke: #1f1f1f; stroke-width: 1.5; stroke-linecap: square"/>
   </g>
   <g id="line2d_14">
    <path d="M 129.279393 22.562 
L 129.279393 38.244667 
" clip-path="url(#pc4c507b994)" style="fill: none; stroke: #1f1f1f; stroke-width: 1.5; stroke-linecap: square"/>
   </g>
   <g id="line2d_15">
    <defs>
     <path id="m60bf491628" d="M -0 3.535534 
L 2.12132 0 
L -0 -3.535534 
L -2.12132 -0 
z
" style="stroke: #1f1f1f; stroke-linejoin: miter"/>
    </defs>
    <g clip-path="url(#pc4c507b994)">
     <use xlink:href="#m60bf491628" x="67.148685" y="30.403333" style="fill: #1f1f1f; stroke: #1f1f1f; stroke-linejoin: miter"/>
     <use xlink:href="#m60bf491628" x="75.22663" y="30.403333" style="fill: #1f1f1f; stroke: #1f1f1f; stroke-linejoin: miter"/>
     <use xlink:href="#m60bf491628" x="71.46041" y="30.403333" style="fill: #1f1f1f; stroke: #1f1f1f; stroke-linejoin: miter"/>
     <use xlink:href="#m60bf491628" x="69.124301" y="30.403333" style="fill: #1f1f1f; stroke: #1f1f1f; stroke-linejoin: miter"/>
     <use xlink:href="#m60bf491628" x="73.390438" y="30.403333" style="fill: #1f1f1f; stroke: #1f1f1f; stroke-linejoin: miter"/>
     <use xlink:href="#m60bf491628" x="75.848767" y="30.403333" style="fill: #1f1f1f; stroke: #1f1f1f; stroke-linejoin: miter"/>
     <use xlink:href="#m60bf491628" x="68.749977" y="30.403333" style="fill: #1f1f1f; stroke: #1f1f1f; stroke-linejoin: miter"/>
     <use xlink:href="#m60bf491628" x="70.550139" y="30.403333" style="fill: #1f1f1f; stroke: #1f1f1f; stroke-linejoin: miter"/>
     <use xlink:href="#m60bf491628" x="158.923197" y="30.403333" style="fill: #1f1f1f; stroke: #1f1f1f; stroke-linejoin: miter"/>
    </g>
   </g>
   <g id="line2d_16">
    <path d="M 52.95537 69.61 
L 49.782712 69.61 
" clip-path="url(#pc4c507b994)" style="fill: none; stroke: #1f1f1f; stroke-width: 1.5; stroke-linecap: square"/>
   </g>
   <g id="line2d_17">
    <path d="M 66.132035 69.61 
L 85.361839 69.61 
" clip-path="url(#pc4c507b994)" style="fill: none; stroke: #1f1f1f; stroke-width: 1.5; stroke-linecap: square"/>
   </g>
   <g id="line2d_18">
    <path d="M 49.782712 61.768667 
L 49.782712 77.451333 
" clip-path="url(#pc4c507b994)" style="fill: none; stroke: #1f1f1f; stroke-width: 1.5; stroke-linecap: square"/>
   </g>
   <g id="line2d_19">
    <path d="M 85.361839 61.768667 
L 85.361839 77.451333 
" clip-path="url(#pc4c507b994)" style="fill: none; stroke: #1f1f1f; stroke-width: 1.5; stroke-linecap: square"/>
   </g>
   <g id="line2d_20">
    <g clip-path="url(#pc4c507b994)">
     <use xlink:href="#m60bf491628" x="95.048896" y="69.61" style="fill: #1f1f1f; stroke: #1f1f1f; stroke-linejoin: miter"/>
     <use xlink:href="#m60bf491628" x="97.203706" y="69.61" style="fill: #1f1f1f; stroke: #1f1f1f; stroke-linejoin: miter"/>
     <use xlink:href="#m60bf491628" x="92.648523" y="69.61" style="fill: #1f1f1f; stroke: #1f1f1f; stroke-linejoin: miter"/>
     <use xlink:href="#m60bf491628" x="96.994573" y="69.61" style="fill: #1f1f1f; stroke: #1f1f1f; stroke-linejoin: miter"/>
     <use xlink:href="#m60bf491628" x="107.960943" y="69.61" style="fill: #1f1f1f; stroke: #1f1f1f; stroke-linejoin: miter"/>
     <use xlink:href="#m60bf491628" x="105.924203" y="69.61" style="fill: #1f1f1f; stroke: #1f1f1f; stroke-linejoin: miter"/>
     <use xlink:href="#m60bf491628" x="101.811518" y="69.61" style="fill: #1f1f1f; stroke: #1f1f1f; stroke-linejoin: miter"/>
     <use xlink:href="#m60bf491628" x="110.942691" y="69.61" style="fill: #1f1f1f; stroke: #1f1f1f; stroke-linejoin: miter"/>
     <use xlink:href="#m60bf491628" x="118.619828" y="69.61" style="fill: #1f1f1f; stroke: #1f1f1f; stroke-linejoin: miter"/>
     <use xlink:href="#m60bf491628" x="112.952277" y="69.61" style="fill: #1f1f1f; stroke: #1f1f1f; stroke-linejoin: miter"/>
     <use xlink:href="#m60bf491628" x="113.458724" y="69.61" style="fill: #1f1f1f; stroke: #1f1f1f; stroke-linejoin: miter"/>
     <use xlink:href="#m60bf491628" x="114.917684" y="69.61" style="fill: #1f1f1f; stroke: #1f1f1f; stroke-linejoin: miter"/>
     <use xlink:href="#m60bf491628" x="105.886061" y="69.61" style="fill: #1f1f1f; stroke: #1f1f1f; stroke-linejoin: miter"/>
     <use xlink:href="#m60bf491628" x="103.251531" y="69.61" style="fill: #1f1f1f; stroke: #1f1f1f; stroke-linejoin: miter"/>
     <use xlink:href="#m60bf491628" x="106.704724" y="69.61" style="fill: #1f1f1f; stroke: #1f1f1f; stroke-linejoin: miter"/>
     <use xlink:href="#m60bf491628" x="101.197156" y="69.61" style="fill: #1f1f1f; stroke: #1f1f1f; stroke-linejoin: miter"/>
     <use xlink:href="#m60bf491628" x="100.578093" y="69.61" style="fill: #1f1f1f; stroke: #1f1f1f; stroke-linejoin: miter"/>
     <use xlink:href="#m60bf491628" x="97.548692" y="69.61" style="fill: #1f1f1f; stroke: #1f1f1f; stroke-linejoin: miter"/>
     <use xlink:href="#m60bf491628" x="90.303446" y="69.61" style="fill: #1f1f1f; stroke: #1f1f1f; stroke-linejoin: miter"/>
     <use xlink:href="#m60bf491628" x="86.217158" y="69.61" style="fill: #1f1f1f; stroke: #1f1f1f; stroke-linejoin: miter"/>
     <use xlink:href="#m60bf491628" x="86.497885" y="69.61" style="fill: #1f1f1f; stroke: #1f1f1f; stroke-linejoin: miter"/>
     <use xlink:href="#m60bf491628" x="90.674357" y="69.61" style="fill: #1f1f1f; stroke: #1f1f1f; stroke-linejoin: miter"/>
     <use xlink:href="#m60bf491628" x="96.320055" y="69.61" style="fill: #1f1f1f; stroke: #1f1f1f; stroke-linejoin: miter"/>
     <use xlink:href="#m60bf491628" x="98.803158" y="69.61" style="fill: #1f1f1f; stroke: #1f1f1f; stroke-linejoin: miter"/>
     <use xlink:href="#m60bf491628" x="100.61812" y="69.61" style="fill: #1f1f1f; stroke: #1f1f1f; stroke-linejoin: miter"/>
     <use xlink:href="#m60bf491628" x="93.909374" y="69.61" style="fill: #1f1f1f; stroke: #1f1f1f; stroke-linejoin: miter"/>
     <use xlink:href="#m60bf491628" x="89.382161" y="69.61" style="fill: #1f1f1f; stroke: #1f1f1f; stroke-linejoin: miter"/>
     <use xlink:href="#m60bf491628" x="87.297329" y="69.61" style="fill: #1f1f1f; stroke: #1f1f1f; stroke-linejoin: miter"/>
     <use xlink:href="#m60bf491628" x="92.746139" y="69.61" style="fill: #1f1f1f; stroke: #1f1f1f; stroke-linejoin: miter"/>
     <use xlink:href="#m60bf491628" x="88.43075" y="69.61" style="fill: #1f1f1f; stroke: #1f1f1f; stroke-linejoin: miter"/>
     <use xlink:href="#m60bf491628" x="96.564956" y="69.61" style="fill: #1f1f1f; stroke: #1f1f1f; stroke-linejoin: miter"/>
     <use xlink:href="#m60bf491628" x="91.190557" y="69.61" style="fill: #1f1f1f; stroke: #1f1f1f; stroke-linejoin: miter"/>
     <use xlink:href="#m60bf491628" x="87.30842" y="69.61" style="fill: #1f1f1f; stroke: #1f1f1f; stroke-linejoin: miter"/>
     <use xlink:href="#m60bf491628" x="92.756322" y="69.61" style="fill: #1f1f1f; stroke: #1f1f1f; stroke-linejoin: miter"/>
     <use xlink:href="#m60bf491628" x="87.580712" y="69.61" style="fill: #1f1f1f; stroke: #1f1f1f; stroke-linejoin: miter"/>
     <use xlink:href="#m60bf491628" x="88.374609" y="69.61" style="fill: #1f1f1f; stroke: #1f1f1f; stroke-linejoin: miter"/>
     <use xlink:href="#m60bf491628" x="91.435851" y="69.61" style="fill: #1f1f1f; stroke: #1f1f1f; stroke-linejoin: miter"/>
     <use xlink:href="#m60bf491628" x="100.437143" y="69.61" style="fill: #1f1f1f; stroke: #1f1f1f; stroke-linejoin: miter"/>
     <use xlink:href="#m60bf491628" x="108.170087" y="69.61" style="fill: #1f1f1f; stroke: #1f1f1f; stroke-linejoin: miter"/>
     <use xlink:href="#m60bf491628" x="101.987742" y="69.61" style="fill: #1f1f1f; stroke: #1f1f1f; stroke-linejoin: miter"/>
     <use xlink:href="#m60bf491628" x="104.0976" y="69.61" style="fill: #1f1f1f; stroke: #1f1f1f; stroke-linejoin: miter"/>
     <use xlink:href="#m60bf491628" x="91.191612" y="69.61" style="fill: #1f1f1f; stroke: #1f1f1f; stroke-linejoin: miter"/>
     <use xlink:href="#m60bf491628" x="95.20887" y="69.61" style="fill: #1f1f1f; stroke: #1f1f1f; stroke-linejoin: miter"/>
    </g>
   </g>
   <g id="line2d_21">
    <path d="M 52.800549 108.816667 
L 49.851589 108.816667 
" clip-path="url(#pc4c507b994)" style="fill: none; stroke: #1f1f1f; stroke-width: 1.5; stroke-linecap: square"/>
   </g>
   <g id="line2d_22">
    <path d="M 55.184974 108.816667 
L 58.713578 108.816667 
" clip-path="url(#pc4c507b994)" style="fill: none; stroke: #1f1f1f; stroke-width: 1.5; stroke-linecap: square"/>
   </g>
   <g id="line2d_23">
    <path d="M 49.851589 100.975333 
L 49.851589 116.658 
" clip-path="url(#pc4c507b994)" style="fill: none; stroke: #1f1f1f; stroke-width: 1.5; stroke-linecap: square"/>
   </g>
   <g id="line2d_24">
    <path d="M 58.713578 100.975333 
L 58.713578 116.658 
" clip-path="url(#pc4c507b994)" style="fill: none; stroke: #1f1f1f; stroke-width: 1.5; stroke-linecap: square"/>
   </g>
   <g id="line2d_25">
    <g clip-path="url(#pc4c507b994)">
     <use xlink:href="#m60bf491628" x="59.061319" y="108.816667" style="fill: #1f1f1f; stroke: #1f1f1f; stroke-linejoin: miter"/>
    </g>
   </g>
   <g id="line2d_26">
    <path d="M 53.131215 148.023333 
L 50.058873 148.023333 
" clip-path="url(#pc4c507b994)" style="fill: none; stroke: #1f1f1f; stroke-width: 1.5; stroke-linecap: square"/>
   </g>
   <g id="line2d_27">
    <path d="M 56.32694 148.023333 
L 61.056887 148.023333 
" clip-path="url(#pc4c507b994)" style="fill: none; stroke: #1f1f1f; stroke-width: 1.5; stroke-linecap: square"/>
   </g>
   <g id="line2d_28">
    <path d="M 50.058873 140.182 
L 50.058873 155.864667 
" clip-path="url(#pc4c507b994)" style="fill: none; stroke: #1f1f1f; stroke-width: 1.5; stroke-linecap: square"/>
   </g>
   <g id="line2d_29">
    <path d="M 61.056887 140.182 
L 61.056887 155.864667 
" clip-path="url(#pc4c507b994)" style="fill: none; stroke: #1f1f1f; stroke-width: 1.5; stroke-linecap: square"/>
   </g>
   <g id="line2d_30">
    <g clip-path="url(#pc4c507b994)">
     <use xlink:href="#m60bf491628" x="62.228688" y="148.023333" style="fill: #1f1f1f; stroke: #1f1f1f; stroke-linejoin: miter"/>
     <use xlink:href="#m60bf491628" x="61.654707" y="148.023333" style="fill: #1f1f1f; stroke: #1f1f1f; stroke-linejoin: miter"/>
     <use xlink:href="#m60bf491628" x="63.127418" y="148.023333" style="fill: #1f1f1f; stroke: #1f1f1f; stroke-linejoin: miter"/>
    </g>
   </g>
   <g id="line2d_31">
    <path d="M 53.212272 187.23 
L 49.768962 187.23 
" clip-path="url(#pc4c507b994)" style="fill: none; stroke: #1f1f1f; stroke-width: 1.5; stroke-linecap: square"/>
   </g>
   <g id="line2d_32">
    <path d="M 64.540109 187.23 
L 81.424752 187.23 
" clip-path="url(#pc4c507b994)" style="fill: none; stroke: #1f1f1f; stroke-width: 1.5; stroke-linecap: square"/>
   </g>
   <g id="line2d_33">
    <path d="M 49.768962 179.388667 
L 49.768962 195.071333 
" clip-path="url(#pc4c507b994)" style="fill: none; stroke: #1f1f1f; stroke-width: 1.5; stroke-linecap: square"/>
   </g>
   <g id="line2d_34">
    <path d="M 81.424752 179.388667 
L 81.424752 195.071333 
" clip-path="url(#pc4c507b994)" style="fill: none; stroke: #1f1f1f; stroke-width: 1.5; stroke-linecap: square"/>
   </g>
   <g id="line2d_35">
    <g clip-path="url(#pc4c507b994)">
     <use xlink:href="#m60bf491628" x="85.221521" y="187.23" style="fill: #1f1f1f; stroke: #1f1f1f; stroke-linejoin: miter"/>
     <use xlink:href="#m60bf491628" x="82.385036" y="187.23" style="fill: #1f1f1f; stroke: #1f1f1f; stroke-linejoin: miter"/>
     <use xlink:href="#m60bf491628" x="89.06575" y="187.23" style="fill: #1f1f1f; stroke: #1f1f1f; stroke-linejoin: miter"/>
     <use xlink:href="#m60bf491628" x="89.014993" y="187.23" style="fill: #1f1f1f; stroke: #1f1f1f; stroke-linejoin: miter"/>
     <use xlink:href="#m60bf491628" x="92.591353" y="187.23" style="fill: #1f1f1f; stroke: #1f1f1f; stroke-linejoin: miter"/>
     <use xlink:href="#m60bf491628" x="91.149382" y="187.23" style="fill: #1f1f1f; stroke: #1f1f1f; stroke-linejoin: miter"/>
     <use xlink:href="#m60bf491628" x="93.460682" y="187.23" style="fill: #1f1f1f; stroke: #1f1f1f; stroke-linejoin: miter"/>
     <use xlink:href="#m60bf491628" x="86.109394" y="187.23" style="fill: #1f1f1f; stroke: #1f1f1f; stroke-linejoin: miter"/>
     <use xlink:href="#m60bf491628" x="84.222937" y="187.23" style="fill: #1f1f1f; stroke: #1f1f1f; stroke-linejoin: miter"/>
     <use xlink:href="#m60bf491628" x="86.575876" y="187.23" style="fill: #1f1f1f; stroke: #1f1f1f; stroke-linejoin: miter"/>
     <use xlink:href="#m60bf491628" x="91.276257" y="187.23" style="fill: #1f1f1f; stroke: #1f1f1f; stroke-linejoin: miter"/>
     <use xlink:href="#m60bf491628" x="88.8899" y="187.23" style="fill: #1f1f1f; stroke: #1f1f1f; stroke-linejoin: miter"/>
     <use xlink:href="#m60bf491628" x="86.882174" y="187.23" style="fill: #1f1f1f; stroke: #1f1f1f; stroke-linejoin: miter"/>
     <use xlink:href="#m60bf491628" x="89.295233" y="187.23" style="fill: #1f1f1f; stroke: #1f1f1f; stroke-linejoin: miter"/>
     <use xlink:href="#m60bf491628" x="85.978124" y="187.23" style="fill: #1f1f1f; stroke: #1f1f1f; stroke-linejoin: miter"/>
     <use xlink:href="#m60bf491628" x="82.286647" y="187.23" style="fill: #1f1f1f; stroke: #1f1f1f; stroke-linejoin: miter"/>
     <use xlink:href="#m60bf491628" x="83.484108" y="187.23" style="fill: #1f1f1f; stroke: #1f1f1f; stroke-linejoin: miter"/>
    </g>
   </g>
   <g id="line2d_36">
    <path d="M 74.536759 226.436667 
L 63.820361 226.436667 
" clip-path="url(#pc4c507b994)" style="fill: none; stroke: #1f1f1f; stroke-width: 1.5; stroke-linecap: square"/>
   </g>
   <g id="line2d_37">
    <path d="M 95.485058 226.436667 
L 117.940074 226.436667 
" clip-path="url(#pc4c507b994)" style="fill: none; stroke: #1f1f1f; stroke-width: 1.5; stroke-linecap: square"/>
   </g>
   <g id="line2d_38">
    <path d="M 63.820361 218.595333 
L 63.820361 234.278 
" clip-path="url(#pc4c507b994)" style="fill: none; stroke: #1f1f1f; stroke-width: 1.5; stroke-linecap: square"/>
   </g>
   <g id="line2d_39">
    <path d="M 117.940074 218.595333 
L 117.940074 234.278 
" clip-path="url(#pc4c507b994)" style="fill: none; stroke: #1f1f1f; stroke-width: 1.5; stroke-linecap: square"/>
   </g>
   <g id="line2d_40"/>
   <g id="line2d_41">
    <path d="M 110.158607 14.720667 
L 110.158607 46.086 
" clip-path="url(#pc4c507b994)" style="fill: none; stroke: #1f1f1f; stroke-width: 1.5; stroke-linecap: square"/>
   </g>
   <g id="line2d_42">
    <path d="M 56.721352 53.927333 
L 56.721352 85.292667 
" clip-path="url(#pc4c507b994)" style="fill: none; stroke: #1f1f1f; stroke-width: 1.5; stroke-linecap: square"/>
   </g>
   <g id="line2d_43">
    <path d="M 53.90507 93.134 
L 53.90507 124.499333 
" clip-path="url(#pc4c507b994)" style="fill: none; stroke: #1f1f1f; stroke-width: 1.5; stroke-linecap: square"/>
   </g>
   <g id="line2d_44">
    <path d="M 54.369961 132.340667 
L 54.369961 163.706 
" clip-path="url(#pc4c507b994)" style="fill: none; stroke: #1f1f1f; stroke-width: 1.5; stroke-linecap: square"/>
   </g>
   <g id="line2d_45">
    <path d="M 57.38016 171.547333 
L 57.38016 202.912667 
" clip-path="url(#pc4c507b994)" style="fill: none; stroke: #1f1f1f; stroke-width: 1.5; stroke-linecap: square"/>
   </g>
   <g id="line2d_46">
    <path d="M 83.844727 210.754 
L 83.844727 242.119333 
" clip-path="url(#pc4c507b994)" style="fill: none; stroke: #1f1f1f; stroke-width: 1.5; stroke-linecap: square"/>
   </g>
   <g id="patch_9">
    <path d="M 44.31125 246.04 
L 44.31125 10.8 
" style="fill: none; stroke: #000000; stroke-width: 0.8; stroke-linejoin: miter; stroke-linecap: square"/>
   </g>
   <g id="patch_10">
    <path d="M 164.380909 246.04 
L 164.380909 10.8 
" style="fill: none; stroke: #000000; stroke-width: 0.8; stroke-linejoin: miter; stroke-linecap: square"/>
   </g>
   <g id="patch_11">
    <path d="M 44.31125 246.04 
L 164.380909 246.04 
" style="fill: none; stroke: #000000; stroke-width: 0.8; stroke-linejoin: miter; stroke-linecap: square"/>
   </g>
   <g id="patch_12">
    <path d="M 44.31125 10.8 
L 164.380909 10.8 
" style="fill: none; stroke: #000000; stroke-width: 0.8; stroke-linejoin: miter; stroke-linecap: square"/>
   </g>
   <g id="legend_1">
    <g id="patch_13">
     <path d="M 153.380909 23.8 
L 157.380909 23.8 
Q 159.380909 23.8 159.380909 21.8 
L 159.380909 17.8 
Q 159.380909 15.8 157.380909 15.8 
L 153.380909 15.8 
Q 151.380909 15.8 151.380909 17.8 
L 151.380909 21.8 
Q 151.380909 23.8 153.380909 23.8 
z
" style="fill: #ffffff; opacity: 0.8; stroke: #cccccc; stroke-linejoin: miter"/>
    </g>
   </g>
  </g>
 </g>
 <defs>
  <clipPath id="pc4c507b994">
   <rect x="44.31125" y="10.8" width="120.069659" height="235.24"/>
  </clipPath>
 </defs>
</svg>
